<svg width="22" height="22" viewBox="0 0 22 22" fill="none" xmlns="http://www.w3.org/2000/svg">
<circle cx="11.1885" cy="10.6265" r="10.5811" fill="#FFEEF6"/>
<g clip-path="url(#clip0_2263_3289)">
<path d="M9.92295 5.82791C9.77649 5.80699 9.76951 5.80001 9.83926 5.79304C9.97177 5.77212 10.2786 5.80001 10.4949 5.84884C10.997 5.9674 11.4504 6.27428 11.9316 6.81131L12.0571 6.95777L12.2385 6.92987C13.0126 6.80433 13.8077 6.90198 14.4703 7.20885C14.6516 7.29254 14.9376 7.45993 14.9724 7.50178C14.9864 7.51573 15.0073 7.60639 15.0213 7.69706C15.0701 8.02486 15.0492 8.26897 14.9445 8.45728C14.8887 8.56189 14.8887 8.58979 14.9236 8.68046C14.9515 8.7502 15.0352 8.79902 15.1119 8.79902C15.2793 8.79902 15.4537 8.53399 15.5374 8.16435L15.5722 8.01789L15.635 8.08763C15.9907 8.48517 16.2697 9.03615 16.3115 9.42672L16.3255 9.53134L16.2627 9.44067C16.1581 9.28026 16.0605 9.17564 15.9279 9.08497C15.6908 8.92456 15.4397 8.87574 14.7772 8.84087C14.1774 8.806 13.8356 8.75718 13.5008 8.64558C12.9289 8.45727 12.636 8.21317 11.9595 7.31347C11.6596 6.91592 11.4713 6.69972 11.283 6.51838C10.8715 6.12084 10.46 5.9116 9.92295 5.82791Z" fill="#FF007A"/>
<path d="M15.1182 6.71379C15.1322 6.44876 15.167 6.2744 15.2438 6.11399C15.2717 6.05122 15.2996 5.99542 15.3065 5.99542C15.3135 5.99542 15.2996 6.04424 15.2786 6.10004C15.2228 6.25348 15.2159 6.46968 15.2507 6.71379C15.2996 7.02764 15.3205 7.06949 15.6553 7.41123C15.8087 7.57165 15.99 7.7739 16.0598 7.8576L16.1783 8.01104L16.0598 7.89945C15.9133 7.75996 15.5785 7.49493 15.5018 7.46006C15.453 7.43216 15.446 7.43216 15.4112 7.46703C15.3833 7.49493 15.3763 7.53677 15.3763 7.73903C15.3693 8.05288 15.3275 8.24817 15.2228 8.45043C15.167 8.55504 15.1601 8.53412 15.2089 8.41555C15.2438 8.32489 15.2507 8.28304 15.2507 7.98314C15.2507 7.37636 15.181 7.2299 14.7556 6.98579C14.6509 6.92302 14.4696 6.83236 14.365 6.78353C14.2534 6.73471 14.1697 6.69287 14.1767 6.69287C14.1906 6.67892 14.6021 6.79748 14.7625 6.86723C15.0066 6.96487 15.0485 6.97184 15.0764 6.96487C15.0973 6.94395 15.1113 6.88815 15.1182 6.71379Z" fill="#FF007A"/>
<path d="M10.2091 7.7529C9.91618 7.34838 9.72787 6.72068 9.76972 6.2534L9.78367 6.10693L9.85341 6.12088C9.97895 6.14181 10.1952 6.2255 10.2998 6.28827C10.5788 6.45566 10.7043 6.68581 10.8229 7.25772C10.8577 7.4251 10.9066 7.62039 10.9275 7.68316C10.9623 7.78777 11.0949 8.03188 11.2065 8.18532C11.2832 8.29691 11.2344 8.3527 11.06 8.33875C10.795 8.31086 10.4393 8.06675 10.2091 7.7529Z" fill="#FF007A"/>
<path d="M14.7629 10.7867C13.382 10.2288 12.8938 9.74755 12.8938 8.93154C12.8938 8.81297 12.9008 8.71533 12.9008 8.71533C12.9077 8.71533 12.9566 8.75718 13.0193 8.806C13.2983 9.02918 13.6122 9.12682 14.484 9.25236C14.9931 9.32908 15.286 9.38488 15.5511 9.47555C16.395 9.75452 16.9181 10.3264 17.0436 11.1006C17.0785 11.3238 17.0575 11.7492 17.0017 11.9724C16.9529 12.1468 16.8134 12.4676 16.7786 12.4746C16.7716 12.4746 16.7576 12.4397 16.7576 12.3839C16.7437 12.091 16.5972 11.812 16.3531 11.5958C16.0602 11.3447 15.6836 11.1564 14.7629 10.7867Z" fill="#FF007A"/>
<path d="M13.7866 11.0169C13.7726 10.9123 13.7377 10.7798 13.7168 10.724L13.6819 10.6194L13.7447 10.6961C13.8354 10.8007 13.9051 10.9263 13.9679 11.1006C14.0167 11.2331 14.0167 11.275 14.0167 11.4912C14.0167 11.7004 14.0097 11.7492 13.9679 11.8678C13.8981 12.0561 13.8145 12.1886 13.675 12.3351C13.4239 12.5932 13.0961 12.7326 12.6288 12.7954C12.5451 12.8024 12.308 12.8233 12.0987 12.8373C11.5757 12.8652 11.2269 12.9209 10.9131 13.0325C10.8712 13.0465 10.8294 13.0604 10.8224 13.0535C10.8085 13.0395 11.0247 12.914 11.199 12.8303C11.4431 12.7117 11.6942 12.6489 12.2452 12.5513C12.5172 12.5095 12.7962 12.4537 12.8659 12.4258C13.5564 12.2096 13.8981 11.6725 13.7866 11.0169Z" fill="#FF007A"/>
<path d="M14.4209 12.1399C14.2396 11.7424 14.1978 11.3657 14.2954 11.0101C14.3094 10.9752 14.3233 10.9403 14.3372 10.9403C14.3512 10.9403 14.393 10.9612 14.4349 10.9891C14.5186 11.0449 14.6929 11.1426 15.1393 11.3867C15.7042 11.6935 16.0251 11.9307 16.2482 12.2027C16.4435 12.4398 16.5621 12.7118 16.6179 13.0466C16.6528 13.2349 16.6318 13.6882 16.583 13.8765C16.4296 14.4694 16.0809 14.9436 15.5717 15.2156C15.495 15.2575 15.4322 15.2854 15.4253 15.2854C15.4183 15.2854 15.4462 15.2156 15.488 15.1319C15.6554 14.7762 15.6763 14.4345 15.5508 14.0509C15.4741 13.8138 15.3137 13.5278 14.9928 13.0466C14.6093 12.4886 14.5186 12.3422 14.4209 12.1399Z" fill="#FF007A"/>
<path d="M9.22532 14.2741C9.74143 13.8417 10.3761 13.5348 10.962 13.4372C11.213 13.3953 11.6315 13.4093 11.8617 13.4721C12.2313 13.5697 12.5661 13.7789 12.7404 14.037C12.9078 14.2881 12.9845 14.5043 13.0613 14.9855C13.0892 15.1738 13.124 15.3691 13.131 15.411C13.1868 15.662 13.2984 15.8573 13.4379 15.9619C13.6541 16.1223 14.0307 16.1293 14.4004 15.9898C14.4631 15.9689 14.5189 15.948 14.5189 15.955C14.5329 15.9689 14.3446 16.0944 14.219 16.1572C14.0447 16.2479 13.9052 16.2758 13.7169 16.2758C13.3821 16.2758 13.0961 16.1014 12.866 15.7527C12.8172 15.683 12.7195 15.4807 12.6358 15.2924C12.3917 14.7275 12.2662 14.5601 11.9802 14.3718C11.7291 14.2114 11.4083 14.1765 11.1642 14.295C10.8434 14.4485 10.7597 14.86 10.9829 15.1111C11.0735 15.2157 11.2409 15.2994 11.3804 15.3203C11.6385 15.3552 11.8617 15.1529 11.8617 14.8948C11.8617 14.7275 11.7989 14.6298 11.6315 14.5531C11.4083 14.4555 11.1642 14.567 11.1712 14.7833C11.1712 14.8739 11.213 14.9297 11.3037 14.9716C11.3595 14.9995 11.3595 14.9995 11.3177 14.9925C11.1154 14.9506 11.0666 14.6996 11.227 14.5391C11.4223 14.3439 11.8338 14.4276 11.9732 14.6996C12.029 14.8112 12.036 15.0343 11.9872 15.1738C11.8686 15.4807 11.5339 15.6411 11.1921 15.5504C10.962 15.4877 10.8643 15.4249 10.5853 15.139C10.0971 14.6368 9.90881 14.5391 9.21137 14.4345L9.07886 14.4136L9.22532 14.2741Z" fill="#FF007A"/>
<path fill-rule="evenodd" clip-rule="evenodd" d="M5.55678 3.05222C7.18182 5.02599 9.68564 8.09474 9.81118 8.26212C9.9158 8.40161 9.87395 8.53413 9.69959 8.63177C9.60195 8.68756 9.39969 8.74336 9.30205 8.74336C9.19046 8.74336 9.05794 8.68756 8.96727 8.5969C8.9045 8.53413 8.6325 8.13658 8.01875 7.18109C7.55146 6.44877 7.15392 5.84199 7.14695 5.83502C7.11905 5.82107 7.11905 5.82107 7.96993 7.3415C8.50696 8.297 8.68132 8.63874 8.68132 8.68059C8.68132 8.77126 8.65342 8.82008 8.54183 8.94562C8.35352 9.15485 8.26983 9.39198 8.20706 9.88717C8.13732 10.4381 7.94901 10.8287 7.41198 11.4913C7.09813 11.8819 7.04931 11.9516 6.97259 12.112C6.87494 12.3073 6.84705 12.4189 6.8331 12.67C6.81915 12.935 6.84705 13.1024 6.92377 13.3535C6.99351 13.5766 7.07023 13.7231 7.25854 14.0091C7.41895 14.2601 7.51659 14.4484 7.51659 14.5182C7.51659 14.574 7.53054 14.574 7.78162 14.5182C8.38142 14.3787 8.87661 14.1416 9.14861 13.8486C9.316 13.6673 9.35784 13.5697 9.35784 13.3186C9.35784 13.1582 9.35087 13.1233 9.30902 13.0257C9.23928 12.8722 9.10676 12.7467 8.82081 12.5514C8.44419 12.2933 8.28378 12.0841 8.24193 11.8051C8.20706 11.568 8.24891 11.4076 8.45814 10.9682C8.67435 10.5149 8.73014 10.3266 8.76502 9.86624C8.78594 9.57332 8.82081 9.45475 8.9045 9.36408C8.99517 9.26644 9.07189 9.23157 9.2881 9.20367C9.64379 9.15485 9.87395 9.06418 10.0553 8.88982C10.2157 8.74336 10.2854 8.5969 10.2924 8.38069L10.2994 8.22028L10.2087 8.12263C9.88092 7.74602 5.34057 2.75232 5.31965 2.75232C5.31267 2.75232 5.42426 2.88483 5.55678 3.05222ZM7.69793 12.9699C7.77465 12.8374 7.7328 12.67 7.60726 12.5863C7.48869 12.5096 7.30736 12.5444 7.30736 12.649C7.30736 12.6769 7.32131 12.7048 7.36315 12.7188C7.42592 12.7537 7.4329 12.7885 7.38408 12.8653C7.33526 12.942 7.33526 13.0117 7.39803 13.0605C7.49567 13.1373 7.62818 13.0954 7.69793 12.9699Z" fill="#FF007A"/>
<path fill-rule="evenodd" clip-rule="evenodd" d="M10.5224 9.30129C10.355 9.35011 10.1946 9.53145 10.1458 9.71278C10.1179 9.82437 10.1319 10.0266 10.1807 10.0894C10.2574 10.187 10.3271 10.2149 10.5224 10.2149C10.906 10.2149 11.2338 10.0476 11.2687 9.84529C11.3036 9.67791 11.1571 9.44775 10.9548 9.34314C10.8502 9.28734 10.634 9.26642 10.5224 9.30129ZM10.9688 9.65001C11.0246 9.56632 11.0037 9.47565 10.899 9.41288C10.7107 9.29431 10.4248 9.39196 10.4248 9.57329C10.4248 9.66396 10.5713 9.7616 10.7107 9.7616C10.8014 9.7616 10.9269 9.70581 10.9688 9.65001Z" fill="#FF007A"/>
</g>
<defs>
<clipPath id="clip0_2263_3289">
<rect width="11.738" height="13.5165" fill="white" transform="translate(5.31982 2.75232)"/>
</clipPath>
</defs>
</svg>
